PathFileType	4	(X/Y/Z)	OpenSim_Sub08_CSBaseline_Magnet.trc
DataRate	CameraRate	NumFrames	NumMarkers	Units	OrigDataRate	OrigDataStartFrame	OrigNumFrames
100	100	23	8	m	100	2048	5461
Frame#	Time	torso_imu_offset_imu	pelvis_imu_offset_imu	tibia_r_imu_offset_imu	femur_r_imu_offset_imu	tibia_l_imu_offset_imu	femur_l_imu_offset_imu	toes_r_imu_offset_imu	toes_l_imu_offset_imu
				X1	Y1	Z1	X2	Y2	Z2	X3	Y3	Z3	X4	Y4	Z4	X5	Y5	Z5	X6	Y6	Z6	X7	Y7	Z7	X8		Y8	Z8	

2048	20.47000000	-0.94311500	-0.14599600	0.08349600	-0.62231400	0.17944300	-0.69091800	-0.68383800	-0.51635700	0.08227500	-0.76220700	-0.34912100	0.03564500	-0.23217800	0.80029300	0.05151400	-0.63330100	-0.11035200	0.21582000	-0.65454100	-0.14550800	-0.39941400	-0.83593800	0.11718800	0.13208000
2049	20.48000000	-0.94531200	-0.14599600	0.08569300	-0.62622100	0.17309600	-0.69995100	-0.68359400	-0.51855500	0.08007800	-0.76001000	-0.35327100	0.04028300	-0.26098600	0.79126000	0.06127900	-0.63281200	-0.12133800	0.21801800	-0.65014600	-0.15332000	-0.40966800	-0.83300800	0.09960900	0.09619100
2050	20.49000000	-0.95166000	-0.14404300	0.09008800	-0.62402300	0.16894500	-0.69970700	-0.67919900	-0.52880900	0.08276400	-0.75781200	-0.35937500	0.03833000	-0.28540000	0.78027300	0.06884800	-0.63012700	-0.13427700	0.21142600	-0.65014600	-0.15136700	-0.41186500	-0.83935500	0.09326200	0.06005900
2051	20.50000000	-0.94751000	-0.14184600	0.09008800	-0.61962900	0.16699200	-0.70434600	-0.67895500	-0.53515600	0.08960000	-0.75952100	-0.36767600	0.04760700	-0.31616200	0.76489300	0.08569300	-0.63647500	-0.14306600	0.20703100	-0.64355500	-0.16137700	-0.41577100	-0.84082000	0.06713900	0.02661100
2052	20.51000000	-0.94751000	-0.14184600	0.09448200	-0.61743200	0.16284200	-0.70654300	-0.67651400	-0.54150400	0.08544900	-0.75537100	-0.36767600	0.04321300	-0.35376000	0.74926800	0.10937500	-0.63623000	-0.15380900	0.20507800	-0.63940400	-0.16552700	-0.41772500	-0.84033200	0.05419900	-0.01611300
2053	20.52000000	-0.94531200	-0.14379900	0.09887700	-0.61938500	0.16064500	-0.70874000	-0.67041000	-0.53735400	0.08300800	-0.75317400	-0.37597700	0.04809600	-0.38208000	0.73168900	0.11718800	-0.63574200	-0.16479500	0.19824200	-0.63501000	-0.17553700	-0.42382800	-0.83960000	0.03662100	-0.04541000
2054	20.53000000	-0.94335900	-0.14184600	0.10546900	-0.62158200	0.15844700	-0.70166000	-0.67211900	-0.54980500	0.08569300	-0.75097700	-0.38012700	0.04834000	-0.41503900	0.70947300	0.13671900	-0.63549800	-0.17114300	0.19848600	-0.63891600	-0.17968800	-0.43017600	-0.83007800	0.01928700	-0.07446300
2055	20.54000000	-0.94555700	-0.13745100	0.10961900	-0.61938500	0.15649400	-0.70385700	-0.66162100	-0.54980500	0.08789100	-0.74682600	-0.37597700	0.05273400	-0.45239300	0.68725600	0.14721700	-0.63769500	-0.17138700	0.19384800	-0.63452100	-0.18774400	-0.43408200	-0.82251000	-0.00024400	-0.10131800
2056	20.55000000	-0.94116200	-0.13964800	0.11206100	-0.61694300	0.14819300	-0.70581100	-0.65747100	-0.55395500	0.08593800	-0.74853500	-0.38842800	0.05761700	-0.47851600	0.66308600	0.14648400	-0.63745100	-0.17993200	0.19628900	-0.63427700	-0.19580100	-0.44653300	-0.81103500	-0.01098600	-0.12597700
2057	20.56000000	-0.94360400	-0.13110400	0.10717800	-0.61889600	0.14599600	-0.71044900	-0.65478500	-0.56445300	0.08837900	-0.74853500	-0.39257800	0.05566400	-0.50927700	0.63891600	0.13916000	-0.63964800	-0.17993200	0.18725600	-0.62793000	-0.20605500	-0.44824200	-0.81005900	-0.03295900	-0.15966800
2058	20.57000000	-0.94360400	-0.13330100	0.11621100	-0.61474600	0.14819300	-0.70581100	-0.65258800	-0.56860400	0.09960900	-0.74023400	-0.39038100	0.06469700	-0.54638700	0.61254900	0.12744100	-0.64209000	-0.17797900	0.19165000	-0.63403300	-0.21020500	-0.45459000	-0.80517600	-0.04370100	-0.18652300
2059	20.58000000	-0.94580100	-0.13330100	0.12060500	-0.61694300	0.14599600	-0.71289100	-0.63989300	-0.57470700	0.09985400	-0.74389600	-0.40478500	0.06054700	-0.57470700	0.58398400	0.12695300	-0.64184600	-0.18212900	0.19189500	-0.63159200	-0.22021500	-0.45849600	-0.78686500	-0.05444300	-0.21801800
2060	20.59000000	-0.95019500	-0.12500000	0.12451200	-0.61889600	0.14404300	-0.71508800	-0.64013700	-0.57055700	0.10424800	-0.73974600	-0.40478500	0.06762700	-0.60717800	0.54858400	0.12255900	-0.64868200	-0.17358400	0.18945300	-0.63378900	-0.22216800	-0.46679700	-0.78442400	-0.06298800	-0.25146500
2061	20.60000000	-0.94604500	-0.12695300	0.12475600	-0.61669900	0.14404300	-0.71264600	-0.63549800	-0.58325200	0.10253900	-0.73535200	-0.40893600	0.07006800	-0.62890600	0.52441400	0.11718800	-0.64209000	-0.17358400	0.19384800	-0.63354500	-0.23046900	-0.47290000	-0.76855500	-0.06713900	-0.28295900
2062	20.61000000	-0.94165000	-0.12475600	0.12451200	-0.61889600	0.14184600	-0.71728500	-0.62719700	-0.58105500	0.09570300	-0.72680700	-0.41723600	0.07031200	-0.65478500	0.49145500	0.12133800	-0.64013700	-0.16479500	0.19848600	-0.63305700	-0.24267600	-0.48120100	-0.76586900	-0.07788100	-0.31225600
2063	20.62000000	-0.94604500	-0.12280300	0.13110400	-0.61669900	0.14184600	-0.71728500	-0.62475600	-0.59155300	0.09375000	-0.72900400	-0.41528300	0.07470700	-0.67602500	0.45629900	0.11669900	-0.64257800	-0.16259800	0.19824200	-0.63916000	-0.25073200	-0.48510700	-0.74755900	-0.09082000	-0.33691400
2064	20.63000000	-0.94848600	-0.11645500	0.12646500	-0.61010700	0.13989300	-0.71484400	-0.62646500	-0.59765600	0.09619100	-0.72241200	-0.42334000	0.07739300	-0.69555700	0.42993200	0.11157200	-0.64502000	-0.15625000	0.19604500	-0.63696300	-0.25488300	-0.49560500	-0.73364300	-0.10351600	-0.38403300
2065	20.64000000	-0.94213900	-0.11425800	0.13305700	-0.60595700	0.14404300	-0.71728500	-0.61840800	-0.59570300	0.10302700	-0.71801800	-0.42968800	0.07543900	-0.71020500	0.39477500	0.10913100	-0.64282200	-0.15185500	0.19824200	-0.63671900	-0.26513700	-0.49536100	-0.71752900	-0.11645500	-0.40625000
2066	20.65000000	-0.94824200	-0.11865200	0.12866200	-0.60595700	0.14184600	-0.72192400	-0.61377000	-0.60620100	0.10327100	-0.72021500	-0.43164100	0.07788100	-0.72485400	0.36181600	0.11303700	-0.64526400	-0.14746100	0.20043900	-0.63867200	-0.27124000	-0.49536100	-0.69897500	-0.12939500	-0.43554700
2067	20.66000000	-0.94433600	-0.11206100	0.13061500	-0.60376000	0.14184600	-0.71972700	-0.60717800	-0.61645500	0.10131800	-0.71777300	-0.43579100	0.08032200	-0.73950200	0.32861300	0.11035200	-0.64331100	-0.13452100	0.20263700	-0.64257800	-0.28149400	-0.50561500	-0.67602500	-0.14672900	-0.45556600
2068	20.67000000	-0.94628900	-0.11425800	0.13061500	-0.60156200	0.13989300	-0.71728500	-0.60058600	-0.62280300	0.09936500	-0.71997100	-0.43798800	0.08252000	-0.75439500	0.30224600	0.11181600	-0.64770500	-0.13671900	0.20483400	-0.64648400	-0.28344700	-0.51171900	-0.65527300	-0.15966800	-0.48461900
2069	20.68000000	-0.94433600	-0.11010700	0.13281200	-0.60180700	0.14404300	-0.72436500	-0.59204100	-0.62915000	0.10180700	-0.71557600	-0.43994100	0.08496100	-0.76220700	0.27148400	0.11792000	-0.63916000	-0.13232400	0.21142600	-0.64624000	-0.29565400	-0.50952100	-0.64160200	-0.16601600	-0.50708000
2070	20.69000000	-0.94433600	-0.10791000	0.13037100	-0.59985400	0.15039100	-0.71997100	-0.58349600	-0.63525400	0.09765600	-0.71557600	-0.43994100	0.08032200	-0.77026400	0.24072300	0.11743200	-0.63916000	-0.13232400	0.21826200	-0.65014600	-0.30175800	-0.51147500	-0.61889600	-0.17456100	-0.52050800
